<svg xmlns="http://www.w3.org/2000/svg" version="1.1" xmlns:xlink="http://www.w3.org/1999/xlink" xmlns:svgjs="http://svgjs.dev/svgjs" width="100%" height="100%" viewBox="0 0 1000 600"><rect width="1000" height="600" x="0" y="0" fill="transparent"/><g><circle r="166.66666666666666" cx="408.47948710123694" cy="430.70173076054436" fill="#00000" transform="matrix(0.5169287193748875,0,0,0.5169287193748874,0,77.3579069186505)"/><path d="M407.1820515386086 368.3398836421909L366.86489652185094 368.3398836421909L366.86489652185094 476.46097874076634L352.3526428686199 476.46097874076634L352.3526428686199 368.3398836421909L312.0354878518623 368.3398836421909L312.0354878518623 355.70172897066857L407.1820515386086 355.70172897066857L407.1820515386086 368.3398836421909ZM504.92352150772075 505.70172823742547L421.88652047201487 505.70172823742547L421.88652047201487 492.8953851957498L504.92352150772075 492.8953851957498L504.92352150772075 505.70172823742547Z " fill="#ffffff" transform="matrix(0.5169287193748875,0,0,0.5169287193748874,0,77.3579069186505)"/><path d="M734.8501159062444 503.34427142793527L734.8501159062444 434.26532560053914L734.8501159062444 390.65238797697276L733.2602036610106 390.65238797697276L704.2580113255403 461.51313201023424L675.2558189900701 390.65238797697276L673.6659067448363 390.65238797697276L673.6659067448363 434.26532560053914L673.6659067448363 503.34427142793527L658.4795035748452 503.34427142793527L658.4795035748452 365.5701516944063L679.778845204959 365.5701516944063L704.0661253649087 426.370588934551L705.2448534087889 426.370588934551L729.5321335687383 365.5701516944063L750.0365190762353 365.5701516944063L750.0365190762353 503.34427142793527L734.8501159062444 503.34427142793527ZM872.021165477788 503.34427142793527L861.1659025620543 503.34427142793527Q851.9005518915544 503.34427142793527 847.9531835585603 498.6019469723243Q844.0058152255663 493.8596225167134 843.0189731423177 486.7598419733421L843.0189731423177 486.7598419733421L842.0321310590692 486.7598419733421Q838.6604206079701 495.6414207225788 831.2591049836062 500.68528025918226Q823.8577893592424 505.70172751569555 811.4400264783652 505.70172751569555L811.4400264783652 505.70172751569555Q795.4312549056671 505.70172751569555 785.9740182745354 497.42321892844416Q776.4893693633137 489.1447103411927 776.4893693633137 474.7258510137283L776.4893693633137 474.7258510137283Q776.4893693633137 460.5262899269857 786.8512112374231 452.82343922162926Q797.2130531115324 445.12058851627285 820.3216052276018 445.12058851627285L820.3216052276018 445.12058851627285L842.0321310590692 445.12058851627285L842.0321310590692 435.060281723156Q842.0321310590692 423.79383460606874 835.6998943582246 418.1743171875703Q829.3950699374702 412.5547997690718 817.7448508991197 412.5547997690718L817.7448508991197 412.5547997690718Q807.4926581453711 412.5547997690718 800.9685354838948 416.6118172224268Q794.4444128224186 420.64142239569156 790.4970444894245 427.5493169784312L790.4970444894245 427.5493169784312L779.8610798144127 419.65458031244304Q781.8347639809098 415.70721197944897 785.1790621519186 411.9517296070866Q788.5233603229275 408.2236595148144 793.45757073917 405.34537010533955Q798.3917811554127 402.494492975955 804.7240178562573 400.82234389045055Q811.0288422770117 399.12278252485584 818.7316929823681 399.12278252485584L818.7316929823681 399.12278252485584Q836.686736441473 399.12278252485584 847.2404642762142 408.2236595148144Q857.8216043910455 417.2971242246827 857.8216043910455 433.47036947792225L857.8216043910455 433.47036947792225L857.8216043910455 489.528482262456L872.021165477788 489.528482262456L872.021165477788 503.34427142793527ZM814.1812544873889 492.48900851220156L814.1812544873889 492.48900851220156Q820.3216052276018 492.48900851220156 825.3380524841152 491.00874538732876Q830.3819120207187 489.528482262456 834.1373943930811 487.0613770543347Q837.8654644853533 484.5942718462134 839.9487977722113 481.14032455484363Q842.0321310590692 477.6863772634738 842.0321310590692 473.73900893047977L842.0321310590692 473.73900893047977L842.0321310590692 456.96269351525495L820.3216052276018 456.96269351525495Q806.0946318607691 456.96269351525495 799.5979214793831 460.91006184824903Q793.0737988179068 464.8574301812431 793.0737988179068 472.36839492596795L793.0737988179068 472.36839492596795L793.0737988179068 476.50764921959365Q793.0737988179068 484.4023858855818 798.6933162364053 488.4319910588465Q804.3128336549037 492.48900851220156 814.1812544873889 492.48900851220156ZM917.0321293859564 503.34427142793527L901.2426560539801 503.34427142793527L901.2426560539801 401.50765089270647L917.0321293859564 401.50765089270647L917.0321293859564 418.09208034729954L917.799673228483 418.09208034729954Q919.3895854737168 414.33659797493715 921.7470415614771 410.88265068356736Q924.1319099293277 407.4287033921975 927.5858572206976 404.8519490637153Q931.0398045120673 402.3026070153233 935.7821289676782 400.71269477008957Q940.4970411431989 399.12278252485584 946.8292778440435 399.12278252485584L946.8292778440435 399.12278252485584Q962.8106371366515 399.12278252485584 972.487172008505 409.29273843833363Q982.1637068803584 419.46269435181136 982.1637068803584 438.02080797290154L982.1637068803584 438.02080797290154L982.1637068803584 503.34427142793527L966.3742335483822 503.34427142793527L966.3742335483822 440.7894482620154Q966.3742335483822 426.7543608558143 960.2338828081693 419.95611539343565Q954.1209443480466 413.157869931057 942.2788393490644 413.157869931057L942.2788393490644 413.157869931057Q937.5365148934534 413.157869931057 933.0134886785643 414.33659797493715Q928.4630501835851 415.51532601881735 924.9268660519446 417.8727821065777Q921.3632696402137 420.25765047442826 919.1976995130851 424.01313284679065Q917.0321293859564 427.7412029390628 917.0321293859564 432.6754133553054L917.0321293859564 432.6754133553054L917.0321293859564 503.34427142793527ZM1065.8259857157605 379.0021689386223L1065.8259857157605 379.0021689386223Q1058.9180911330209 379.0021689386223 1056.176863123997 376.15129180923765Q1053.4082228348834 373.2730023997628 1053.4082228348834 368.9418621455054L1053.4082228348834 368.9418621455054L1053.4082228348834 365.78944993512823Q1053.4082228348834 361.4308974007806 1056.176863123997 358.580020271396Q1058.9180911330209 355.7017308619212 1065.8259857157605 355.7017308619212L1065.8259857157605 355.7017308619212Q1072.7338802985 355.7017308619212 1075.502520587614 358.580020271396Q1078.271160876728 361.4308974007806 1078.271160876728 365.78944993512823L1078.271160876728 365.78944993512823L1078.271160876728 368.9418621455054Q1078.271160876728 373.2730023997628 1075.502520587614 376.15129180923765Q1072.7338802985 379.0021689386223 1065.8259857157605 379.0021689386223ZM1021.2262060089455 503.34427142793527L1021.2262060089455 489.9122541837193L1057.9312490497723 489.9122541837193L1057.9312490497723 414.91225585683213L1021.2262060089455 414.91225585683213L1021.2262060089455 401.50765089270647L1073.7207223817486 401.50765089270647L1073.7207223817486 489.9122541837193L1108.068309334815 489.9122541837193L1108.068309334815 503.34427142793527L1021.2262060089455 503.34427142793527ZM1144.0058085331152 503.34427142793527L1129.395063245019 503.34427142793527L1129.395063245019 401.50765089270647L1144.0058085331152 401.50765089270647L1144.0058085331152 413.34975589168863L1144.7733523756417 413.34975589168863Q1147.1582207434922 407.4287033921975 1151.4893609977496 403.2894490985718Q1155.8479135320972 399.12278252485584 1164.3183080799804 399.12278252485584L1164.3183080799804 399.12278252485584Q1173.1998868292171 399.12278252485584 1177.5584393635645 403.5635718994742Q1181.889579617822 408.0043612740925 1182.8764217010705 415.131554097554L1182.8764217010705 415.131554097554L1183.4794918630557 415.131554097554Q1186.2207198720794 408.2236595148144 1191.3742285290439 403.6732210198351Q1196.5003249059182 399.12278252485584 1205.5737896157864 399.12278252485584L1205.5737896157864 399.12278252485584Q1218.0189647767538 399.12278252485584 1222.2404559106503 407.8124753134608Q1226.489359324637 416.50216810206587 1226.489359324637 432.6754133553054L1226.489359324637 432.6754133553054L1226.489359324637 503.34427142793527L1211.8786140365407 503.34427142793527L1211.8786140365407 435.25216768378766Q1211.8786140365407 422.2313346409253 1209.2196228677878 417.1874751043218Q1206.5606316990347 412.1710278478085 1199.4608511556635 412.1710278478085L1199.4608511556635 412.1710278478085Q1193.128614454819 412.1710278478085 1189.1812461218249 416.20063302107326Q1185.2338777888308 420.25765047442826 1185.2338777888308 428.53615906167965L1185.2338777888308 428.53615906167965L1185.2338777888308 503.34427142793527L1170.650544780825 503.34427142793527L1170.650544780825 435.25216768378766Q1170.650544780825 422.2313346409253 1167.9641413319819 417.1874751043218Q1165.305150163229 412.1710278478085 1158.3972555804894 412.1710278478085L1158.3972555804894 412.1710278478085Q1152.0924311597348 412.1710278478085 1148.03541370638 416.20063302107326Q1144.0058085331152 420.25765047442826 1144.0058085331152 428.53615906167965L1144.0058085331152 428.53615906167965L1144.0058085331152 503.34427142793527ZM1345.7053654370757 503.34427142793527L1334.8501025213418 503.34427142793527Q1325.5847518508422 503.34427142793527 1321.6373835178479 498.6019469723243Q1317.690015184854 493.8596225167134 1316.7031731016054 486.7598419733421L1316.7031731016054 486.7598419733421L1315.7163310183569 486.7598419733421Q1312.3446205672578 495.6414207225788 1304.943304942894 500.68528025918226Q1297.5419893185299 505.70172751569555 1285.1242264376529 505.70172751569555L1285.1242264376529 505.70172751569555Q1269.1154548649547 505.70172751569555 1259.6582182338232 497.42321892844416Q1250.1735693226012 489.1447103411927 1250.1735693226012 474.7258510137283L1250.1735693226012 474.7258510137283Q1250.1735693226012 460.5262899269857 1260.5354111967108 452.82343922162926Q1270.8972530708202 445.12058851627285 1294.0058051868896 445.12058851627285L1294.0058051868896 445.12058851627285L1315.7163310183569 445.12058851627285L1315.7163310183569 435.060281723156Q1315.7163310183569 423.79383460606874 1309.3840943175123 418.1743171875703Q1303.0792698967578 412.5547997690718 1291.4290508584072 412.5547997690718L1291.4290508584072 412.5547997690718Q1281.1768581046588 412.5547997690718 1274.6527354431826 416.6118172224268Q1268.1286127817061 420.64142239569156 1264.1812444487123 427.5493169784312L1264.1812444487123 427.5493169784312L1253.5452797737003 419.65458031244304Q1255.5189639401974 415.70721197944897 1258.863262111206 411.9517296070866Q1262.2075602822151 408.2236595148144 1267.1417706984575 405.34537010533955Q1272.0759811147004 402.494492975955 1278.408217815545 400.82234389045055Q1284.7130422362993 399.12278252485584 1292.4158929416558 399.12278252485584L1292.4158929416558 399.12278252485584Q1310.3709364007607 399.12278252485584 1320.924664235502 408.2236595148144Q1331.5058043503332 417.2971242246827 1331.5058043503332 433.47036947792225L1331.5058043503332 433.47036947792225L1331.5058043503332 489.528482262456L1345.7053654370757 489.528482262456L1345.7053654370757 503.34427142793527ZM1287.8654544466765 492.48900851220156L1287.8654544466765 492.48900851220156Q1294.0058051868896 492.48900851220156 1299.0222524434027 491.00874538732876Q1304.0661119800063 489.528482262456 1307.8215943523687 487.0613770543347Q1311.5496644446407 484.5942718462134 1313.632997731499 481.14032455484363Q1315.7163310183569 477.6863772634738 1315.7163310183569 473.73900893047977L1315.7163310183569 473.73900893047977L1315.7163310183569 456.96269351525495L1294.0058051868896 456.96269351525495Q1279.778831820057 456.96269351525495 1273.2821214386706 460.91006184824903Q1266.7579987771944 464.8574301812431 1266.7579987771944 472.36839492596795L1266.7579987771944 472.36839492596795L1266.7579987771944 476.50764921959365Q1266.7579987771944 484.4023858855818 1272.3775161956928 488.4319910588465Q1277.9970336141914 492.48900851220156 1287.8654544466765 492.48900851220156ZM1370.7601894395518 503.34427142793527L1370.7601894395518 489.9122541837193L1400.5847501777293 489.9122541837193L1400.5847501777293 414.91225585683213L1370.7601894395518 414.91225585683213L1370.7601894395518 401.50765089270647L1416.3742235097054 401.50765089270647L1416.3742235097054 427.16554505716783L1417.361065592954 427.16554505716783Q1420.5134778033312 415.131554097554 1429.2854074322067 408.3058963550851Q1438.084749341173 401.50765089270647 1451.6812402659302 401.50765089270647L1451.6812402659302 401.50765089270647L1465.908213632763 401.50765089270647L1465.908213632763 417.2971242246827L1446.7470298496876 417.2971242246827Q1433.1505389249303 417.2971242246827 1424.7623812173179 425.1918608906708Q1416.3742235097054 433.08659755665894 1416.3742235097054 445.9155446388896L1416.3742235097054 445.9155446388896L1416.3742235097054 489.9122541837193L1455.847906839646 489.9122541837193L1455.847906839646 503.34427142793527L1370.7601894395518 503.34427142793527ZM1582.5474654167194 503.34427142793527L1571.6922025009858 503.34427142793527Q1562.426851830486 503.34427142793527 1558.4794834974919 498.6019469723243Q1554.5321151644976 493.8596225167134 1553.5452730812492 486.7598419733421L1553.5452730812492 486.7598419733421L1552.5584309980006 486.7598419733421Q1549.1867205469016 495.6414207225788 1541.7854049225375 500.68528025918226Q1534.3840892981739 505.70172751569555 1521.9663264172964 505.70172751569555L1521.9663264172964 505.70172751569555Q1505.9575548445985 505.70172751569555 1496.500318213467 497.42321892844416Q1487.015669302245 489.1447103411927 1487.015669302245 474.7258510137283L1487.015669302245 474.7258510137283Q1487.015669302245 460.5262899269857 1497.3775111763543 452.82343922162926Q1507.7393530504637 445.12058851627285 1530.847905166533 445.12058851627285L1530.847905166533 445.12058851627285L1552.5584309980006 445.12058851627285L1552.5584309980006 435.060281723156Q1552.5584309980006 423.79383460606874 1546.2261942971559 418.1743171875703Q1539.9213698764015 412.5547997690718 1528.2711508380512 412.5547997690718L1528.2711508380512 412.5547997690718Q1518.0189580843025 412.5547997690718 1511.4948354228263 416.6118172224268Q1504.9707127613501 420.64142239569156 1501.0233444283558 427.5493169784312L1501.0233444283558 427.5493169784312L1490.3873797533442 419.65458031244304Q1492.3610639198412 415.70721197944897 1495.70536209085 411.9517296070866Q1499.0496602618591 408.2236595148144 1503.9838706781015 405.34537010533955Q1508.918081094344 402.494492975955 1515.2503177951885 400.82234389045055Q1521.555142215943 399.12278252485584 1529.2579929212998 399.12278252485584L1529.2579929212998 399.12278252485584Q1547.2130363804044 399.12278252485584 1557.7667642151455 408.2236595148144Q1568.347904329977 417.2971242246827 1568.347904329977 433.47036947792225L1568.347904329977 433.47036947792225L1568.347904329977 489.528482262456L1582.5474654167194 489.528482262456L1582.5474654167194 503.34427142793527ZM1524.7075544263203 492.48900851220156L1524.7075544263203 492.48900851220156Q1530.847905166533 492.48900851220156 1535.8643524230465 491.00874538732876Q1540.90821195965 489.528482262456 1544.6636943320127 487.0613770543347Q1548.3917644242847 484.5942718462134 1550.4750977111428 481.14032455484363Q1552.5584309980006 477.6863772634738 1552.5584309980006 473.73900893047977L1552.5584309980006 473.73900893047977L1552.5584309980006 456.96269351525495L1530.847905166533 456.96269351525495Q1516.6209317997004 456.96269351525495 1510.1242214183144 460.91006184824903Q1503.6000987568382 464.8574301812431 1503.6000987568382 472.36839492596795L1503.6000987568382 472.36839492596795L1503.6000987568382 476.50764921959365Q1503.6000987568382 484.4023858855818 1509.2196161753368 488.4319910588465Q1514.8391335938352 492.48900851220156 1524.7075544263203 492.48900851220156ZM1627.5584293248878 503.34427142793527L1611.7689559929117 503.34427142793527L1611.7689559929117 401.50765089270647L1627.5584293248878 401.50765089270647L1627.5584293248878 418.09208034729954L1628.3259731674145 418.09208034729954Q1629.915885412648 414.33659797493715 1632.2733415004086 410.88265068356736Q1634.658209868259 407.4287033921975 1638.112157159629 404.8519490637153Q1641.5661044509989 402.3026070153233 1646.3084289066096 400.71269477008957Q1651.0233410821304 399.12278252485584 1657.355577782975 399.12278252485584L1657.355577782975 399.12278252485584Q1673.336937075583 399.12278252485584 1683.0134719474363 409.29273843833363Q1692.69000681929 419.46269435181136 1692.69000681929 438.02080797290154L1692.69000681929 438.02080797290154L1692.69000681929 503.34427142793527L1676.9005334873136 503.34427142793527L1676.9005334873136 440.7894482620154Q1676.9005334873136 426.7543608558143 1670.7601827471008 419.95611539343565Q1664.6472442869779 413.157869931057 1652.8051392879956 413.157869931057L1652.8051392879956 413.157869931057Q1648.0628148323847 413.157869931057 1643.5397886174958 414.33659797493715Q1638.9893501225165 415.51532601881735 1635.4531659908762 417.8727821065777Q1631.8895695791452 420.25765047442826 1629.7239994520164 424.01313284679065Q1627.5584293248878 427.7412029390628 1627.5584293248878 432.6754133553054L1627.5584293248878 432.6754133553054L1627.5584293248878 503.34427142793527Z " fill="#00000" transform="matrix(0.5169287193748875,0,0,0.5169287193748874,0,77.3579069186505)"/></g></svg>