<svg width="150" height="137" viewBox="0 0 150 137" fill="none" xmlns="http://www.w3.org/2000/svg">
<path d="M25.0801 0L23.1162 5.31888L21.1523 0H19.9658V6.5054H20.7841V1.14561L22.748 6.5054H23.4435L25.4483 1.14561V6.5054H26.2258V0H25.0801Z" fill="yellow"/>
<path d="M84.9385 0L82.9746 5.31888L80.9697 0H79.8242V6.5054H80.6016V1.14561L82.6063 6.5054H83.3019L85.2658 1.14561V6.5054H86.084V0H84.9385Z" fill="red"/>
<path d="M144.796 0L142.791 5.31888L140.827 0H139.641V6.5054H140.459V1.14561L142.423 6.5054H143.119L145.123 1.14561V6.5054H145.942V0H144.796Z" fill="green"/>
<path d="M5.15526 10.8423L3.15039 16.1612L1.18648 10.8423H0V17.3477H0.818289V11.9879L2.82306 17.3477H3.47773L5.4825 11.9879V17.3477H6.30078V10.8423H5.15526Z" fill="blue"/>
<path d="M48.9338 10.8423H50.0794L52.0842 16.1612L54.0481 10.8423H55.1937V17.3477H54.3754V11.9879L52.4116 17.3477H51.7159L49.7112 11.9879V17.3477H48.9338V10.8423Z" fill="red"/>
<path d="M107.605 10.8423H108.791L110.755 16.1612L112.719 10.8423H113.865V17.3477H113.087V11.9879L111.082 17.3477H110.387L108.423 11.9879V17.3477H107.605V10.8423Z" fill="blue"/>
<path d="M28.2307 21.6847H29.4172L31.3811 27.0036L33.345 21.6847H34.4906V28.1901H33.7132V22.8303L31.7084 28.1901H31.0129L29.049 22.8303V28.1901H28.2307V21.6847Z" fill="blue"/>
<path d="M84.6521 21.6847H85.8387L87.8026 27.0036L89.7664 21.6847H90.912V28.1901H90.1347V22.8303L88.1298 28.1901H87.4343L85.4704 22.8303V28.1901H84.6521V21.6847Z" fill="yellow"/>
<path d="M112.882 21.6847H114.069L116.033 27.0036L117.997 21.6847H119.142V28.1901H118.324V22.8303L116.36 28.1901H115.665L113.66 22.8303V28.1901H112.882V21.6847Z" fill="red"/>
<path d="M131.663 21.6847H132.849L134.813 27.0036L136.818 21.6847H137.964V28.1901H137.145V22.8303L135.181 28.1901H134.445L132.481 22.8303V28.1901H131.663V21.6847Z" fill="green"/>
<path d="M90.9934 32.5269H92.18L94.1439 37.8458L96.1077 32.5269H97.2533V38.9914H96.435V33.6725L94.4711 38.9914H93.7756L91.8117 33.6725V38.9914H90.9934V32.5269Z" fill="blue"/>
<path d="M49.6697 43.3694H50.8563L52.8202 48.6883L54.8249 43.3694H55.9706V49.8339H55.1523V44.515L53.1884 49.8339H52.4928L50.488 44.515V49.8339H49.6697V43.3694Z" fill="red"/>
<path d="M99.3401 43.3694H100.527L102.49 48.6883L104.495 43.3694H105.641V49.8339H104.823V44.515L102.859 49.8339H102.163L100.158 44.515V49.8339H99.3401V43.3694Z" fill="green"/>
<path d="M5.15526 54.2117L3.15039 59.5305L1.18648 54.2117H0V60.6761H0.818289V55.3573L2.82306 60.6761H3.47773L5.4825 55.3573V60.6761H6.30078V54.2117H5.15526Z" fill="yellow"/>
<path d="M19.4341 54.2117H20.6206L22.5845 59.5305L24.5484 54.2117H25.694V60.6761H24.8757V55.3573L22.9118 60.6761H22.2163L20.2524 55.3573V60.6761H19.4341V54.2117Z" fill="blue"/>
<path d="M67.9587 54.2117H69.1043L71.1091 59.5305L73.073 54.2117H74.2186V60.6761H73.4003V55.3573L71.4365 60.6761H70.7408L68.7361 55.3573V60.6761H67.9587V54.2117Z" fill="yellow"/>
<path d="M116.443 54.2117H117.629L119.593 59.5305L121.598 54.2117H122.743V60.6761H121.925V55.3573L119.961 60.6761H119.266L117.261 55.3573V60.6761H116.443V54.2117Z" fill="red"/>
<path d="M59.2444 65.0541H60.4309L62.4357 70.373L64.3995 65.0541H65.5452V71.5186H64.7269V66.1997L62.763 71.5186H62.0674L60.0627 66.1997V71.5186H59.2444V65.0541Z" fill="green"/>
<path d="M118.529 65.0541H119.716L121.679 70.373L123.643 65.0541H124.789V71.5186H123.971V66.1997L122.007 71.5186H121.311L119.347 66.1997V71.5186H118.529V65.0541Z" fill="blue"/>
<path d="M70.7817 75.8963H71.9682L73.9321 81.2152L75.937 75.8963H77.0825V82.3608H76.2642V77.0419L74.2595 82.3608H73.5639L71.6 77.0419V82.3608H70.7817V75.8963Z" fill="blue"/>
<path d="M101.141 75.8963H102.286L104.291 81.2152L106.255 75.8963H107.401V82.3608H106.582V77.0419L104.618 82.3608H103.923L101.918 77.0419V82.3608H101.141V75.8963Z" fill="red"/>
<path d="M141.564 75.8963H142.75L144.714 81.2152L146.678 75.8963H147.824V82.3608H147.046V77.0419L145.041 82.3608H144.346L142.382 77.0419V82.3608H141.564V75.8963Z" fill="yellow"/>
<path d="M74.4644 86.7386H75.6508L77.6147 92.0575L79.5787 86.7386H80.7243V93.2031H79.9469V87.8842L77.9421 93.2031H77.2466L75.2826 87.8842V93.2031H74.4644V86.7386Z" fill="green"/>
<path d="M111.696 86.7386H112.883L114.846 92.0575L116.81 86.7386H117.956V93.2031H117.138V87.8842L115.174 93.2031H114.478L112.473 87.8842V93.2031H111.696V86.7386Z" fill="blue"/>
<path d="M9.81982 97.5401H11.0063L12.9702 102.9L14.9751 97.5401H16.1206V104.045H15.3023V98.7266L13.2976 104.045H12.602L10.6381 98.7266V104.045H9.81982V97.5401Z" fill="red"/>
<path d="M39.2781 97.5401H40.4646L42.4285 102.9L44.3924 97.5401H45.538V104.045H44.7606V98.7266L42.7558 104.045H42.0603L40.0964 98.7266V104.045H39.2781V97.5401Z" fill="yellow"/>
<path d="M78.5554 97.5401H79.7419L81.7058 102.9L83.6697 97.5401H84.8154V104.045H83.9971V98.7266L82.0331 104.045H81.3376L79.3737 98.7266V104.045H78.5554V97.5401Z" fill="blue"/>
<path d="M5.15526 108.383L3.15039 113.742L1.18648 108.383H0V114.888H0.818289V109.528L2.82306 114.888H3.47773L5.4825 109.528V114.888H6.30078V108.383H5.15526Z" fill="red"/>
<path d="M56.6262 108.383H57.7718L59.7767 113.742L61.7405 108.383H62.8862V114.888H62.0679V109.528L60.1039 114.888H59.4084L57.4037 109.528V114.888H56.6262V108.383Z" fill="green"/>
<path d="M113.211 108.383H114.397L116.361 113.742L118.325 108.383H119.471V114.888H118.652V109.528L116.688 114.888H115.993L114.029 109.528V114.888H113.211V108.383Z" fill="blue"/>
<path d="M19.9658 119.225H21.1523L23.1572 124.585L25.121 119.225H26.2666V125.73H25.4483V120.37L23.4844 125.73H22.7889L20.7841 120.37V125.73H19.9658V119.225Z" fill="yellow"/>
<path d="M89.8889 119.225H91.0755L93.0393 124.585L95.0032 119.225H96.1488V125.73H95.3715V120.37L93.3666 125.73H92.6711L90.7072 120.37V125.73H89.8889V119.225Z" fill="blue"/>
<path d="M15.0159 130.067L13.052 135.386L11.0882 130.067H9.90161V136.573H10.7199V131.213L12.6838 136.573H13.3793L15.3842 131.213V136.573H16.1615V130.067H15.0159Z" fill="green"/>
<path d="M94.103 130.067L92.0982 135.386L90.1343 130.067H88.9478V136.573H89.766V131.213L91.7709 136.573H92.4664L94.4303 131.213V136.573H95.2486V130.067H94.103Z" fill="yellow"/>
<path d="M133.627 130.067L131.663 135.386L129.699 130.067H128.513V136.573H129.29V131.213L131.295 136.573H131.991L133.954 131.213V136.573H134.773V130.067H133.627Z" fill="red"/>

</svg>